<?xml version="1.0" encoding="utf-8"?><svg xmlns="http://www.w3.org/2000/svg" xmlns:xlink="http://www.w3.org/1999/xlink"><symbol viewBox="0 0 26 22" id="github"><path d="M25.047 17.422C22.984 21.594 17.313 22 13.25 22 9.125 22 3.109 21.641.969 17.422.172 15.844 0 13.984 0 12.25c0-2.281.625-4.438 2.125-6.188a8.585 8.585 0 0 1-.422-2.656c0-1.172.266-2.343.797-3.406 2.469 0 4.047 1.078 5.922 2.547A20.895 20.895 0 0 1 13.25 2c1.469 0 2.953.156 4.375.5C19.484 1.047 21.063 0 23.5 0a7.629 7.629 0 0 1 .797 3.406c0 .891-.141 1.781-.422 2.625C25.375 7.797 26 9.969 26 12.25c0 1.734-.172 3.578-.953 5.172zM18.5 10.5c-1.031 0-2.016.188-3.047.328-.812.125-1.625.172-2.453.172s-1.641-.047-2.453-.172c-1.016-.14-2.016-.328-3.047-.328-2.547 0-4 2.109-4 4.5 0 4.781 4.375 5.516 8.188 5.516h2.625c3.813 0 8.188-.734 8.188-5.516-.001-2.391-1.454-4.5-4.001-4.5zM8 18c-1.406 0-2-1.859-2-3s.594-3 2-3 2 1.859 2 3-.594 3-2 3zm10 0c-1.406 0-2-1.859-2-3s.594-3 2-3 2 1.859 2 3-.594 3-2 3z"/></symbol><symbol viewBox="0 0 19.125 19.125" id="link"><path d="M18.129 16.441l-1.723 1.711a3.35 3.35 0 0 1-2.379.973 3.335 3.335 0 0 1-2.391-.996l-2.414-2.426a3.353 3.353 0 0 1-.972-2.379 3.43 3.43 0 0 1 1.031-2.449L8.25 9.844a3.407 3.407 0 0 1-2.438 1.031 3.392 3.392 0 0 1-2.391-.984L.984 7.453A3.34 3.34 0 0 1 0 5.063c0-.891.363-1.758.996-2.379L2.719.973A3.35 3.35 0 0 1 5.098 0C6 0 6.855.352 7.488.996l2.414 2.426a3.35 3.35 0 0 1 .973 2.379A3.43 3.43 0 0 1 9.844 8.25l1.031 1.031a3.407 3.407 0 0 1 2.438-1.031c.891 0 1.758.352 2.391.984l2.438 2.438c.645.645.984 1.488.984 2.391a3.356 3.356 0 0 1-.997 2.378zM8.309 5.004L5.895 2.578c-.211-.211-.504-.328-.797-.328s-.586.117-.797.316L2.578 4.277a1.116 1.116 0 0 0 0 1.583l2.438 2.438c.211.21.504.315.797.315.34 0 .609-.117.844-.363-.387-.387-.844-.715-.844-1.312 0-.621.504-1.125 1.125-1.125.598 0 .926.457 1.313.844.246-.234.387-.504.387-.855a1.142 1.142 0 0 0-.329-.798zm8.238 8.262l-2.438-2.438a1.136 1.136 0 0 0-1.641.047c.387.387.844.715.844 1.313 0 .621-.504 1.125-1.125 1.125-.598 0-.926-.457-1.313-.844-.246.234-.387.504-.387.855 0 .293.117.586.328.797l2.414 2.426c.211.211.504.316.797.316s.586-.105.797-.305l1.723-1.711c.211-.211.328-.492.328-.785a1.11 1.11 0 0 0-.327-.796z"/></symbol><symbol viewBox="0 0 30.011 17.123" id="vk"><path d="M27.625 5.832c-3.031 4.031-3.359 3.656-.859 5.984 2.406 2.234 2.906 3.313 2.984 3.453 0 0 1 1.75-1.109 1.766l-4 .063c-.859.172-2-.609-2-.609-1.5-1.031-2.906-3.703-4-3.359 0 0-1.125.359-1.094 2.766.016.516-.234.797-.234.797s-.281.297-.828.344h-1.797c-3.953.25-7.438-3.391-7.438-3.391S3.437 9.707.093 1.848c-.219-.516.016-.766.016-.766S.343.785 1 .785L5.281.754c.406.063.688.281.688.281s.25.172.375.5c.703 1.75 1.609 3.344 1.609 3.344 1.563 3.219 2.625 3.766 3.234 3.438 0 0 .797-.484.625-4.375-.063-1.406-.453-2.047-.453-2.047-.359-.485-1.031-.625-1.328-.672-.234-.031.156-.594.672-.844.766-.375 2.125-.391 3.734-.375 1.266.016 1.625.094 2.109.203 1.484.359.984 1.734.984 5.047 0 1.063-.203 2.547.563 3.031.328.219 1.141.031 3.141-3.375 0 0 .938-1.625 1.672-3.516.125-.344.391-.484.391-.484s.25-.141.594-.094l4.5-.031c1.359-.172 1.578.453 1.578.453.234.641-.501 2.141-2.344 4.594z"/></symbol></svg>